<?xml version="1.0" encoding="UTF-8" standalone="no"?>
<svg
   xmlns:dc="http://purl.org/dc/elements/1.1/"
   xmlns:cc="http://creativecommons.org/ns#"
   xmlns:rdf="http://www.w3.org/1999/02/22-rdf-syntax-ns#"
   xmlns:svg="http://www.w3.org/2000/svg"
   xmlns="http://www.w3.org/2000/svg"
   xmlns:sodipodi="http://sodipodi.sourceforge.net/DTD/sodipodi-0.dtd"
   xmlns:inkscape="http://www.inkscape.org/namespaces/inkscape"
   id="svg"
   version="1.1"
   width="400"
   height="400"
   style="display: block;"
   inkscape:version="0.91 r13725"
   sodipodi:docname="WhatsOn_LOGO_beautiful.svg">
  <metadata
     id="metadata13">
    <rdf:RDF>
      <cc:Work
         rdf:about="">
        <dc:format>image/svg+xml</dc:format>
        <dc:type
           rdf:resource="http://purl.org/dc/dcmitype/StillImage" />
        <dc:title></dc:title>
      </cc:Work>
    </rdf:RDF>
  </metadata>
  <defs
     id="defs11" />
  <sodipodi:namedview
     pagecolor="#ffffff"
     bordercolor="#666666"
     borderopacity="1"
     objecttolerance="10"
     gridtolerance="10"
     guidetolerance="10"
     inkscape:pageopacity="0"
     inkscape:pageshadow="2"
     inkscape:window-width="1848"
     inkscape:window-height="1051"
     id="namedview9"
     showgrid="false"
     inkscape:zoom="1.668772"
     inkscape:cx="190.57527"
     inkscape:cy="186.18485"
     inkscape:window-x="72"
     inkscape:window-y="0"
     inkscape:window-maximized="1"
     inkscape:current-layer="svgg" />
  <g
     id="svgg">
    <path
       id="path0"
       d=""
       stroke="none"
       fill-rule="evenodd"
       fill="#000000" />
    <path
       id="path1"
       d="M194.417 70.281 C 125.039 73.183,70.450 130.135,70.479 199.583 C 70.511 278.109,140.306 338.525,218.054 327.328 C 291.264 316.786,340.769 246.901,326.409 174.369 C 314.051 111.946,257.850 67.627,194.417 70.281 M206.083 86.331 C 261.919 89.756,306.644 132.498,312.329 187.866 C 319.180 254.601,266.757 312.667,199.654 312.667 C 128.211 312.667,74.607 247.266,88.597 177.167 C 99.601 122.029,150.204 82.904,206.083 86.331 M255.250 138.677 C 239.518 140.234,230.100 155.747,230.718 179.083 C 231.129 194.568,236.074 205.951,245.981 214.212 L 246.535 214.675 246.157 215.629 C 240.364 230.234,231.492 244.429,225.482 248.711 C 220.784 252.058,216.308 251.110,213.796 246.236 C 210.641 240.112,209.585 231.337,209.384 209.583 C 209.205 190.107,210.234 174.088,212.776 156.750 C 214.380 145.813,211.419 141.032,203.083 141.102 C 194.818 141.170,191.187 145.331,189.501 156.667 C 183.668 195.897,174.137 228.220,163.810 243.802 C 159.254 250.676,156.027 252.264,153.477 248.886 C 146.234 239.291,145.124 204.963,150.618 160.500 C 152.297 146.913,150.645 142.515,143.387 141.250 C 136.584 140.063,131.391 143.044,129.451 149.250 C 126.446 158.857,123.778 196.398,124.670 216.500 C 126.387 255.184,135.873 275.444,152.250 275.402 C 166.621 275.365,179.479 260.909,189.184 233.877 C 189.587 232.756,189.958 231.837,190.009 231.836 C 190.059 231.834,190.193 232.767,190.306 233.908 C 193.387 264.967,204.064 278.918,221.497 274.661 C 235.632 271.209,251.872 252.464,263.339 226.365 C 264.729 223.202,264.936 222.823,265.241 222.899 C 269.823 224.038,281.377 224.758,284.583 224.104 C 288.693 223.266,291.413 220.383,292.466 215.750 C 294.132 208.420,291.259 204.673,283.967 204.664 C 279.696 204.659,271.831 203.971,271.836 203.602 C 271.838 203.500,272.243 201.909,272.738 200.066 C 282.586 163.340,277.486 140.572,258.987 138.673 C 257.151 138.485,257.195 138.485,255.250 138.677 M255.211 160.333 C 258.592 162.992,258.230 177.000,254.409 191.417 C 253.373 195.326,253.536 195.109,252.593 193.829 C 248.590 188.395,246.963 178.092,248.595 168.511 C 249.593 162.650,252.924 158.533,255.211 160.333 "
       stroke="none"
       fill-rule="evenodd"
       fill="#ffffff" />
    <path
       id="path2"
       d="M191.000 56.013 C 114.843 61.098,56.286 123.396,56.286 199.333 C 56.286 278.590,120.513 342.833,199.750 342.833 C 287.169 342.833,354.157 265.465,341.819 178.750 C 331.853 108.705,271.846 56.392,200.917 55.914 C 196.700 55.886,192.237 55.930,191.000 56.013 M206.500 70.337 C 275.296 74.140,328.894 130.672,328.882 199.417 C 328.869 270.869,271.087 328.665,199.667 328.665 C 116.024 328.665,54.474 250.453,74.017 169.002 C 88.474 108.749,144.642 66.918,206.500 70.337 M193.421 86.336 C 121.780 90.816,72.333 158.346,89.997 227.583 C 106.195 291.074,173.394 327.644,235.577 306.808 C 294.602 287.031,326.587 223.344,307.231 164.135 C 292.987 120.566,254.825 90.657,208.167 86.494 C 205.527 86.258,196.254 86.159,193.421 86.336 M260.000 138.745 C 277.941 141.502,282.609 165.121,272.399 201.484 C 272.080 202.621,271.878 203.608,271.951 203.677 C 272.291 204.000,280.936 204.657,285.000 204.668 C 291.372 204.686,294.300 209.208,292.423 216.131 C 291.003 221.370,287.955 223.956,282.667 224.409 C 279.273 224.700,267.092 223.660,265.131 222.912 C 264.986 222.857,264.517 223.755,263.685 225.678 C 252.981 250.422,237.015 269.762,223.750 274.054 C 209.151 278.777,199.228 271.899,193.933 253.388 C 192.214 247.376,190.167 236.110,190.167 232.659 C 190.167 231.755,189.958 231.833,189.593 232.875 C 178.387 264.878,161.677 280.459,145.323 274.153 C 127.912 267.438,120.645 227.057,126.430 169.167 C 128.177 151.685,129.242 147.213,132.403 144.080 C 136.885 139.639,146.344 140.008,149.577 144.750 C 151.297 147.273,151.783 152.148,150.924 158.245 C 147.588 181.907,146.335 211.076,147.929 228.000 C 149.364 243.249,153.392 252.514,157.644 250.345 C 167.833 245.147,181.459 207.015,188.170 164.917 C 188.360 163.725,188.844 160.646,189.247 158.074 C 191.290 145.007,194.589 141.000,203.305 141.000 C 211.688 141.000,214.377 145.777,212.687 157.667 C 208.550 186.768,208.142 226.848,211.839 240.933 C 214.996 252.963,222.074 253.965,230.568 243.583 C 235.715 237.292,242.236 225.561,246.148 215.554 L 246.486 214.691 245.070 213.488 C 235.212 205.120,230.361 192.304,230.722 175.587 C 231.014 162.035,234.429 151.921,240.914 145.406 C 245.977 140.319,253.394 137.730,260.000 138.745 M252.811 160.335 C 247.894 162.933,246.322 179.503,250.089 189.033 C 251.225 191.908,253.272 195.205,253.514 194.550 C 253.743 193.932,255.470 186.941,255.812 185.250 C 258.984 169.563,257.569 157.820,252.811 160.335 "
       stroke="none"
       fill-rule="evenodd"
       fill="#229305"
       style="fill:#4cb471;fill-opacity:1" />
    <path
       id="path3"
       d="M192.544 42.164 C 177.032 42.908,162.421 45.693,148.250 50.608 C 115.428 61.990,87.379 83.767,68.426 112.583 C 67.401 114.142,66.417 115.658,66.240 115.954 C 66.062 116.249,65.383 117.374,64.730 118.454 C 62.271 122.523,58.905 128.855,57.132 132.750 C 56.715 133.667,56.169 134.867,55.919 135.417 C 38.107 174.633,38.107 223.534,55.919 262.750 C 56.169 263.300,56.715 264.500,57.132 265.417 C 59.311 270.203,61.982 275.132,66.237 282.217 C 66.851 283.238,71.036 289.515,71.735 290.462 C 72.123 290.987,72.994 292.167,73.670 293.083 C 85.420 308.996,101.580 323.599,118.667 333.742 C 123.068 336.355,123.158 336.406,125.167 337.463 C 131.979 341.044,136.739 343.226,143.000 345.638 C 149.372 348.092,155.185 349.919,161.917 351.583 C 165.812 352.545,167.359 352.869,173.500 354.005 C 185.288 356.186,201.038 356.721,214.833 355.409 C 238.658 353.143,263.978 344.500,283.167 332.085 C 290.089 327.606,294.868 324.137,300.156 319.753 C 311.063 310.711,322.104 298.460,329.827 286.833 C 330.770 285.412,331.673 284.061,331.832 283.829 C 332.373 283.042,334.456 279.591,335.702 277.417 C 352.395 248.289,359.327 215.111,355.655 181.917 C 353.072 158.560,345.628 136.843,333.291 116.671 C 332.647 115.619,331.991 114.569,331.832 114.337 C 331.673 114.106,330.771 112.754,329.828 111.333 C 328.885 109.912,327.970 108.563,327.795 108.333 C 327.620 108.104,326.672 106.829,325.688 105.500 C 318.476 95.756,308.231 84.887,300.236 78.494 C 299.953 78.268,298.765 77.314,297.597 76.374 C 280.460 62.589,259.339 52.070,238.426 46.906 C 236.771 46.497,235.004 46.056,234.500 45.925 C 223.919 43.188,205.540 41.540,192.544 42.164 M211.500 56.233 C 303.516 64.660,363.650 153.425,336.982 241.461 C 320.812 294.842,273.855 334.493,218.333 341.649 C 132.355 352.731,56.286 285.924,56.286 199.333 C 56.286 123.396,114.843 61.098,191.000 56.013 C 194.574 55.774,208.073 55.919,211.500 56.233 M203.708 86.282 C 203.869 86.323,204.131 86.323,204.292 86.282 C 204.452 86.240,204.321 86.205,204.000 86.205 C 203.679 86.205,203.548 86.240,203.708 86.282 M109.910 106.375 L 109.083 107.250 109.958 106.423 C 110.440 105.968,110.833 105.574,110.833 105.548 C 110.833 105.424,110.679 105.562,109.910 106.375 M289.833 106.917 C 290.424 107.513,290.945 108.000,290.990 108.000 C 291.036 108.000,290.591 107.513,290.000 106.917 C 289.409 106.321,288.889 105.833,288.843 105.833 C 288.797 105.833,289.243 106.321,289.833 106.917 M292.167 109.250 C 292.757 109.846,293.278 110.333,293.324 110.333 C 293.370 110.333,292.924 109.846,292.333 109.250 C 291.743 108.654,291.222 108.167,291.176 108.167 C 291.130 108.167,291.576 108.654,292.167 109.250 M106.410 109.875 L 105.583 110.750 106.458 109.923 C 107.271 109.154,107.410 109.000,107.285 109.000 C 107.259 109.000,106.865 109.394,106.410 109.875 M122.073 116.875 L 121.583 117.417 122.125 116.927 C 122.423 116.658,122.667 116.414,122.667 116.385 C 122.667 116.257,122.529 116.370,122.073 116.875 M276.833 116.552 C 276.833 116.581,277.077 116.825,277.375 117.094 L 277.917 117.583 277.427 117.042 C 276.971 116.537,276.833 116.423,276.833 116.552 M281.500 121.219 C 281.500 121.248,281.744 121.491,282.042 121.760 L 282.583 122.250 282.094 121.708 C 281.638 121.203,281.500 121.090,281.500 121.219 M116.906 122.042 L 116.417 122.583 116.958 122.094 C 117.256 121.825,117.500 121.581,117.500 121.552 C 117.500 121.423,117.362 121.537,116.906 122.042 M213.205 153.000 C 213.205 153.321,213.240 153.452,213.282 153.292 C 213.323 153.131,213.323 152.869,213.282 152.708 C 213.240 152.548,213.205 152.679,213.205 153.000 M125.039 185.833 C 125.039 186.154,125.073 186.285,125.115 186.125 C 125.157 185.965,125.157 185.702,125.115 185.542 C 125.073 185.381,125.039 185.512,125.039 185.833 M124.872 188.667 C 124.872 188.987,124.906 189.119,124.948 188.958 C 124.990 188.798,124.990 188.535,124.948 188.375 C 124.906 188.215,124.872 188.346,124.872 188.667 M124.709 192.250 C 124.711 192.617,124.745 192.747,124.785 192.540 C 124.824 192.332,124.823 192.032,124.781 191.873 C 124.739 191.714,124.707 191.883,124.709 192.250 M312.705 193.333 C 312.705 193.654,312.740 193.785,312.782 193.625 C 312.823 193.465,312.823 193.202,312.782 193.042 C 312.740 192.881,312.705 193.012,312.705 193.333 M124.545 196.667 C 124.545 197.079,124.578 197.248,124.618 197.042 C 124.657 196.835,124.657 196.498,124.618 196.292 C 124.578 196.085,124.545 196.254,124.545 196.667 M209.385 196.917 C 209.386 197.467,209.417 197.672,209.454 197.372 C 209.491 197.072,209.490 196.622,209.452 196.372 C 209.414 196.122,209.384 196.367,209.385 196.917 M70.388 197.417 C 70.389 198.058,70.419 198.300,70.455 197.955 C 70.491 197.609,70.490 197.084,70.454 196.788 C 70.417 196.492,70.387 196.775,70.388 197.417 M86.387 197.333 C 86.387 197.929,86.417 198.173,86.454 197.875 C 86.491 197.577,86.491 197.090,86.454 196.792 C 86.417 196.494,86.387 196.737,86.387 197.333 M312.900 199.500 C 312.900 200.921,312.926 201.502,312.957 200.792 C 312.988 200.081,312.988 198.919,312.957 198.208 C 312.926 197.498,312.900 198.079,312.900 199.500 M328.900 199.417 C 328.900 200.792,328.926 201.332,328.957 200.617 C 328.989 199.903,328.988 198.778,328.957 198.117 C 328.925 197.457,328.900 198.042,328.900 199.417 M70.388 201.417 C 70.389 202.058,70.419 202.300,70.455 201.955 C 70.491 201.609,70.490 201.084,70.454 200.788 C 70.417 200.492,70.387 200.775,70.388 201.417 M86.385 201.583 C 86.386 202.133,86.417 202.338,86.454 202.039 C 86.491 201.739,86.490 201.289,86.452 201.039 C 86.414 200.788,86.384 201.033,86.385 201.583 M147.218 202.250 C 147.219 202.800,147.250 203.005,147.287 202.705 C 147.325 202.406,147.324 201.956,147.286 201.705 C 147.248 201.455,147.217 201.700,147.218 202.250 M281.125 204.618 C 281.331 204.657,281.669 204.657,281.875 204.618 C 282.081 204.578,281.912 204.545,281.500 204.545 C 281.087 204.545,280.919 204.578,281.125 204.618 M209.388 214.917 C 209.389 215.558,209.419 215.800,209.455 215.455 C 209.491 215.109,209.490 214.584,209.454 214.288 C 209.417 213.992,209.387 214.275,209.388 214.917 M124.545 214.833 C 124.545 215.246,124.578 215.415,124.618 215.208 C 124.657 215.002,124.657 214.665,124.618 214.458 C 124.578 214.252,124.545 214.421,124.545 214.833 M147.217 217.333 C 147.217 217.838,147.248 218.044,147.286 217.792 C 147.324 217.540,147.324 217.127,147.286 216.875 C 147.248 216.623,147.217 216.829,147.217 217.333 M124.705 218.833 C 124.705 219.154,124.740 219.285,124.782 219.125 C 124.823 218.965,124.823 218.702,124.782 218.542 C 124.740 218.381,124.705 218.512,124.705 218.833 M280.208 224.456 C 280.644 224.490,281.356 224.490,281.792 224.456 C 282.227 224.422,281.871 224.393,281.000 224.393 C 280.129 224.393,279.773 224.422,280.208 224.456 M227.994 246.458 L 227.083 247.417 228.042 246.506 C 228.932 245.659,229.076 245.500,228.953 245.500 C 228.927 245.500,228.495 245.931,227.994 246.458 M215.500 248.750 C 215.811 249.071,216.103 249.333,216.149 249.333 C 216.195 249.333,215.978 249.071,215.667 248.750 C 215.356 248.429,215.064 248.167,215.018 248.167 C 214.972 248.167,215.189 248.429,215.500 248.750 M238.913 263.875 L 237.417 265.417 238.958 263.920 C 240.390 262.530,240.576 262.333,240.455 262.333 C 240.430 262.333,239.736 263.027,238.913 263.875 M105.833 288.417 C 106.144 288.737,106.436 289.000,106.482 289.000 C 106.528 289.000,106.311 288.737,106.000 288.417 C 105.689 288.096,105.397 287.833,105.351 287.833 C 105.305 287.833,105.522 288.096,105.833 288.417 M292.909 288.875 L 292.250 289.583 292.958 288.925 C 293.348 288.562,293.667 288.243,293.667 288.216 C 293.667 288.090,293.522 288.216,292.909 288.875 M288.909 292.875 L 288.250 293.583 288.958 292.925 C 289.617 292.312,289.743 292.167,289.617 292.167 C 289.590 292.167,289.271 292.485,288.909 292.875 M110.667 293.250 C 110.978 293.571,111.270 293.833,111.315 293.833 C 111.361 293.833,111.144 293.571,110.833 293.250 C 110.522 292.929,110.230 292.667,110.185 292.667 C 110.139 292.667,110.356 292.929,110.667 293.250 M194.542 312.615 C 194.702 312.657,194.965 312.657,195.125 312.615 C 195.285 312.573,195.154 312.539,194.833 312.539 C 194.512 312.539,194.381 312.573,194.542 312.615 M204.208 312.615 C 204.369 312.657,204.631 312.657,204.792 312.615 C 204.952 312.573,204.821 312.539,204.500 312.539 C 204.179 312.539,204.048 312.573,204.208 312.615 M194.375 328.615 C 194.535 328.657,194.798 328.657,194.958 328.615 C 195.119 328.573,194.987 328.539,194.667 328.539 C 194.346 328.539,194.215 328.573,194.375 328.615 M204.375 328.615 C 204.535 328.657,204.798 328.657,204.958 328.615 C 205.119 328.573,204.987 328.539,204.667 328.539 C 204.346 328.539,204.215 328.573,204.375 328.615 "
       stroke="none"
       fill-rule="evenodd"
       fill="#99da1a"
       style="fill:#cae4d2;fill-opacity:1" />
    <path
       id="path4"
       d=""
       stroke="none"
       fill-rule="evenodd"
       fill="#00ff00" />
  </g>
</svg>
